<svg version="1.2" xmlns="http://www.w3.org/2000/svg" width="195" height="371"><path class="s0" d="M45.6 11.1c-3 0-5.5 2.5-5.5 5.5v33.9c0 3 2.5 5.5 5.5 5.5h20.8c3 0 5.5-2.5 5.5-5.5V39.1c0-3.1 2.5-5.5 5.5-5.5h40.8c3 0 5.5 2.4 5.5 5.5v11.4c0 3 2.5 5.5 5.5 5.5H150c3 0 5.5-2.5 5.5-5.5V16.6c0-3-2.5-5.5-5.5-5.5zM47 58.8h18.1v45.1H47zM130.6 58.8h18v45.1h-18zM8.4 240.9c1.6 24.4 38.2 42 57.6 12.5l27.9-38.9-51.9-6.7 12.5-14.6h54.9l22.8-33c3.7-5.3 10.9-6.8 16.4-3.4 5.8 3.7 7.5 11.5 3.5 17.2l-22.8 33 21.2 52.3-8.4 15.4-27.5-47.7-34.9 50c-5.1 7.3-6.8 16.5-4.5 25.1 1.5 5.4 4.8 11.1 11.1 15.7 6.1 4.4 13.4 6.6 20.9 6.6h67.9c6.7 0 12-5.3 12-12V119c0-6.7-5.3-12-12-12H20.4c-6.6 0-12 5.3-12 12v121.9zM47.3 359.2c-8.4 0-15.2-6.8-15.2-15.1 0-8.4 6.8-15.1 15.2-15.1 8.3 0 15.1 6.7 15.1 15.1 0 8.3-6.8 15.1-15.1 15.1zM148.4 359.2c-8.4 0-15.2-6.8-15.2-15.1 0-8.4 6.8-15.1 15.2-15.1 8.3 0 15.1 6.7 15.1 15.1 0 8.3-6.8 15.1-15.1 15.1z" fill="#feb101"/></svg>